# xmcd CD database file
#
# Track frame offsets:
#	150
#	13308
#	25539
#	41035
#	58657
#	70017
#	82825
#	96456
#	113237
#	129042
#	145464
#	156897
#	175655
#	192301
#	221125
#	236238
#	248664
#	267378
#
# Disc length: 4495 seconds
#
# Revision: 4
# Processed by: cddbd v1.5.2PL0 Copyright (c) Steve Scherf et al.
# Submitted via: CDex 1.94
#
DISCID=fd118d12
DTITLE=Various Artist - Stax - Chartbusters # 5
DYEAR=1900
DGENRE=Blues
TTITLE0=Carla Thomas - Ill Always Have Faith In You
TTITLE1=William Bell and Judy Clay - Private Number
TTITLE2=Melvin Van Peebles - Sweetback's Theme
TTITLE3=Booker T And The MG's - Melting Pot
TTITLE4=Eddie Floyd - Bring It On Home To Me
TTITLE5=Johnnie Taylor - Who's Making Love
TTITLE6=The Temprees - Explain It To Her Mama
TTITLE7=Shirley Brown - So Glad To Have You
TTITLE8=William Bell - I Can't Make It (All By Myself)
TTITLE9=Isaac Hayes - Never Can Say Goodbye
TTITLE10=The Mad Lads - No Strings Attached
TTITLE11=The Soul Childeren - All That Shines Ain't Gold
TTITLE12=The Staple Singers - This World
TTITLE13=Little Milton - The Thrill Is Gone
TTITLE14=The Bar Kays - Yesterday
TTITLE15=The Dramatics - You Could Become The Very Heart Of Me
TTITLE16=Johnnie Taylor - Stop Doggin' Me
TTITLE17=Isaac Hayes - Medley: Monologue: Ike's Mood I
EXTD=
EXTT0=
EXTT1=
EXTT2=
EXTT3=
EXTT4=
EXTT5=
EXTT6=
EXTT7=
EXTT8=
EXTT9=
EXTT10=
EXTT11=
EXTT12=
EXTT13=
EXTT14=
EXTT15=
EXTT16=
EXTT17=
PLAYORDER=
